<mxfile host="65bd71144e">
    <diagram id="YJO78P73yxt3FNNVUtzb" name="Страница 1">
        <mxGraphModel dx="980" dy="380" grid="1" gridSize="10" guides="1" tooltips="1" connect="1" arrows="1" fold="1" page="1" pageScale="1" pageWidth="827" pageHeight="1169" math="0" shadow="0">
            <root>
                <mxCell id="0"/>
                <mxCell id="1" parent="0"/>
                <mxCell id="4" value="" style="edgeStyle=none;html=1;" edge="1" parent="1" source="2" target="3">
                    <mxGeometry relative="1" as="geometry"/>
                </mxCell>
                <mxCell id="2" value="START" style="ellipse;whiteSpace=wrap;html=1;" vertex="1" parent="1">
                    <mxGeometry x="360" y="40" width="120" height="80" as="geometry"/>
                </mxCell>
                <mxCell id="12" value="" style="edgeStyle=none;html=1;" edge="1" parent="1" source="3" target="11">
                    <mxGeometry relative="1" as="geometry"/>
                </mxCell>
                <mxCell id="3" value="N1 = ConsoleReadLine()&lt;br&gt;N2 = ConsoleReadLine()&lt;br&gt;N3 = ConsoleReadLine()" style="whiteSpace=wrap;html=1;" vertex="1" parent="1">
                    <mxGeometry x="297.5" y="160" width="245" height="60" as="geometry"/>
                </mxCell>
                <mxCell id="11" value="Console.WriteLine(N1, N2, N3)" style="shape=document;whiteSpace=wrap;html=1;boundedLbl=1;" vertex="1" parent="1">
                    <mxGeometry x="325" y="260" width="190" height="80" as="geometry"/>
                </mxCell>
            </root>
        </mxGraphModel>
    </diagram>
</mxfile>